solid ascii
  facet normal -0.000000e+00 -1.000000e+00 -0.000000e+00
    outer loop
      vertex   -9.200000e+01 1.480000e+02 1.600000e+01
      vertex   -1.080000e+02 1.480000e+02 1.600000e+01
      vertex   -9.200000e+01 1.480000e+02 0.000000e+00
    endloop
  endfacet
  facet normal -0.000000e+00 -1.000000e+00 -0.000000e+00
    outer loop
      vertex   -9.200000e+01 1.480000e+02 0.000000e+00
      vertex   -1.080000e+02 1.480000e+02 1.600000e+01
      vertex   -1.080000e+02 1.480000e+02 0.000000e+00
    endloop
  endfacet
  facet normal 0.000000e+00 0.000000e+00 -1.000000e+00
    outer loop
      vertex   -9.200000e+01 1.480000e+02 0.000000e+00
      vertex   -1.080000e+02 1.480000e+02 0.000000e+00
      vertex   -9.200000e+01 1.570000e+02 0.000000e+00
    endloop
  endfacet
  facet normal -0.000000e+00 0.000000e+00 -1.000000e+00
    outer loop
      vertex   -9.200000e+01 1.570000e+02 0.000000e+00
      vertex   -1.080000e+02 1.480000e+02 0.000000e+00
      vertex   -1.080000e+02 1.570000e+02 0.000000e+00
    endloop
  endfacet
  facet normal -1.000000e+00 0.000000e+00 0.000000e+00
    outer loop
      vertex   -1.080000e+02 1.480000e+02 0.000000e+00
      vertex   -1.080000e+02 1.480000e+02 1.600000e+01
      vertex   -1.080000e+02 1.570000e+02 0.000000e+00
    endloop
  endfacet
  facet normal -1.000000e+00 0.000000e+00 0.000000e+00
    outer loop
      vertex   -1.080000e+02 1.570000e+02 0.000000e+00
      vertex   -1.080000e+02 1.480000e+02 1.600000e+01
      vertex   -1.080000e+02 1.570000e+02 1.600000e+01
    endloop
  endfacet
  facet normal 0.000000e+00 1.000000e+00 0.000000e+00
    outer loop
      vertex   -9.200000e+01 1.570000e+02 1.600000e+01
      vertex   -9.200000e+01 1.570000e+02 0.000000e+00
      vertex   -1.080000e+02 1.570000e+02 1.600000e+01
    endloop
  endfacet
  facet normal 0.000000e+00 1.000000e+00 0.000000e+00
    outer loop
      vertex   -1.080000e+02 1.570000e+02 1.600000e+01
      vertex   -9.200000e+01 1.570000e+02 0.000000e+00
      vertex   -1.080000e+02 1.570000e+02 0.000000e+00
    endloop
  endfacet
  facet normal 0.000000e+00 -0.000000e+00 1.000000e+00
    outer loop
      vertex   -1.080000e+02 1.480000e+02 1.600000e+01
      vertex   -9.200000e+01 1.480000e+02 1.600000e+01
      vertex   -1.080000e+02 1.570000e+02 1.600000e+01
    endloop
  endfacet
  facet normal -0.000000e+00 0.000000e+00 1.000000e+00
    outer loop
      vertex   -1.080000e+02 1.570000e+02 1.600000e+01
      vertex   -9.200000e+01 1.480000e+02 1.600000e+01
      vertex   -9.200000e+01 1.570000e+02 1.600000e+01
    endloop
  endfacet
  facet normal 1.000000e+00 -0.000000e+00 0.000000e+00
    outer loop
      vertex   -9.200000e+01 1.480000e+02 1.600000e+01
      vertex   -9.200000e+01 1.480000e+02 0.000000e+00
      vertex   -9.200000e+01 1.570000e+02 1.600000e+01
    endloop
  endfacet
  facet normal 1.000000e+00 -0.000000e+00 0.000000e+00
    outer loop
      vertex   -9.200000e+01 1.570000e+02 1.600000e+01
      vertex   -9.200000e+01 1.480000e+02 0.000000e+00
      vertex   -9.200000e+01 1.570000e+02 0.000000e+00
    endloop
  endfacet
endsolid
